<svg xmlns="http://www.w3.org/2000/svg" xmlns:xlink="http://www.w3.org/1999/xlink" xmlns:lucid="lucid" width="1982" height="1741"><g transform="translate(-520 0)" lucid:page-tab-id="HWEp-vi-RSFO"><path d="M0 0h3015.02v3004H0z" fill="#fff"/><path d="M1084.58 128a8 8 0 0 1 8-8H1932a8 8 0 0 1 8 8v53a8 8 0 0 1-8 8h-839.42a8 8 0 0 1-8-8z" stroke="#000" stroke-opacity="0" stroke-width="2" fill="#fff" fill-opacity="0"/><use xlink:href="#a" transform="matrix(1,0,0,1,1088.5840157649172,123.99999999999997) translate(302.90012345679014 37.08444444444444)"/><use xlink:href="#b" transform="matrix(1,0,0,1,1088.5840157649172,123.99999999999997) translate(429.49518518518516 37.08444444444444)"/><use xlink:href="#c" transform="matrix(1,0,0,1,1088.5840157649172,123.99999999999997) translate(467.2988888888889 37.08444444444444)"/><path d="M1355.05 186.74h317.2M1355.08 186.74h-1.03M1672.24 186.74h1.02" stroke="#a9afb8" stroke-width="2" fill="none"/><path d="M1077.7 197a8 8 0 0 1 8-8h840.4a8 8 0 0 1 8 8v15.58a8 8 0 0 1-8 8h-840.4a8 8 0 0 1-8-8z" stroke="#000" stroke-opacity="0" stroke-width="2" fill="#fff" fill-opacity="0"/><path d="M567.5 427.25h360v264h-360z" stroke="#333" stroke-width="2" fill="#fff"/><path d="M567.5 464.85h360m-360 123.9h360" stroke="#333" stroke-width="2" fill="none"/><use xlink:href="#d" transform="matrix(1,0,0,1,575.5106162404277,435.25) translate(144.075 14.6)"/><use xlink:href="#e" transform="matrix(1,0,0,1,579.5106162404277,472.85) translate(0 25.19999999999999)"/><use xlink:href="#f" transform="matrix(1,0,0,1,579.5106162404277,472.85) translate(10.95 25.19999999999999)"/><use xlink:href="#g" transform="matrix(1,0,0,1,579.5106162404277,472.85) translate(90.75 25.19999999999999)"/><use xlink:href="#h" transform="matrix(1,0,0,1,579.5106162404277,472.85) translate(114.7 25.19999999999999)"/><use xlink:href="#i" transform="matrix(1,0,0,1,579.5106162404277,472.85) translate(140.7 25.19999999999999)"/><use xlink:href="#j" transform="matrix(1,0,0,1,579.5106162404277,472.85) translate(0 46.79999999999999)"/><use xlink:href="#k" transform="matrix(1,0,0,1,579.5106162404277,472.85) translate(15.5 46.79999999999999)"/><use xlink:href="#l" transform="matrix(1,0,0,1,579.5106162404277,472.85) translate(106.30000000000001 46.79999999999999)"/><use xlink:href="#j" transform="matrix(1,0,0,1,579.5106162404277,472.85) translate(0 68.39999999999999)"/><use xlink:href="#m" transform="matrix(1,0,0,1,579.5106162404277,472.85) translate(15.5 68.39999999999999)"/><use xlink:href="#l" transform="matrix(1,0,0,1,579.5106162404277,472.85) translate(81.4 68.39999999999999)"/><use xlink:href="#j" transform="matrix(1,0,0,1,579.5106162404277,472.85) translate(0 90)"/><use xlink:href="#n" transform="matrix(1,0,0,1,579.5106162404277,472.85) translate(15.5 90)"/><use xlink:href="#o" transform="matrix(1,0,0,1,579.5106162404277,472.85) translate(89.35000000000001 90)"/><use xlink:href="#j" transform="matrix(1,0,0,1,579.5106162404277,596.75) translate(0 25.5)"/><use xlink:href="#p" transform="matrix(1,0,0,1,579.5106162404277,596.75) translate(15.5 25.5)"/><use xlink:href="#q" transform="matrix(1,0,0,1,579.5106162404277,596.75) translate(110.30000000000001 25.5)"/><use xlink:href="#j" transform="matrix(1,0,0,1,579.5106162404277,596.75) translate(0 47.1)"/><use xlink:href="#r" transform="matrix(1,0,0,1,579.5106162404277,596.75) translate(15.5 47.1)"/><use xlink:href="#q" transform="matrix(1,0,0,1,579.5106162404277,596.75) translate(84.30000000000001 47.1)"/><use xlink:href="#j" transform="matrix(1,0,0,1,579.5106162404277,596.75) translate(0 68.7)"/><use xlink:href="#s" transform="matrix(1,0,0,1,579.5106162404277,596.75) translate(15.5 68.7)"/><use xlink:href="#t" transform="matrix(1,0,0,1,579.5106162404277,596.75) translate(108.30000000000001 68.7)"/><path d="M1027.5 527.25h360v285h-360z" stroke="#333" stroke-width="2" fill="#fff"/><path d="M1027.5 564.85h360m-360 145.5h360" stroke="#333" stroke-width="2" fill="none"/><use xlink:href="#u" transform="matrix(1,0,0,1,1035.5106162404277,535.25) translate(150.025 14.6)"/><use xlink:href="#v" transform="matrix(1,0,0,1,1039.5106162404277,572.85) translate(0 25.39999999999999)"/><use xlink:href="#w" transform="matrix(1,0,0,1,1039.5106162404277,572.85) translate(15.95 25.39999999999999)"/><use xlink:href="#g" transform="matrix(1,0,0,1,1039.5106162404277,572.85) translate(83.85000000000001 25.39999999999999)"/><use xlink:href="#h" transform="matrix(1,0,0,1,1039.5106162404277,572.85) translate(107.80000000000001 25.39999999999999)"/><use xlink:href="#i" transform="matrix(1,0,0,1,1039.5106162404277,572.85) translate(133.8 25.39999999999999)"/><use xlink:href="#j" transform="matrix(1,0,0,1,1039.5106162404277,572.85) translate(0 46.99999999999999)"/><use xlink:href="#x" transform="matrix(1,0,0,1,1039.5106162404277,572.85) translate(15.5 46.99999999999999)"/><use xlink:href="#l" transform="matrix(1,0,0,1,1039.5106162404277,572.85) translate(88.45 46.99999999999999)"/><use xlink:href="#j" transform="matrix(1,0,0,1,1039.5106162404277,572.85) translate(0 68.6)"/><use xlink:href="#y" transform="matrix(1,0,0,1,1039.5106162404277,572.85) translate(15.5 68.6)"/><use xlink:href="#z" transform="matrix(1,0,0,1,1039.5106162404277,572.85) translate(96.5 68.6)"/><use xlink:href="#j" transform="matrix(1,0,0,1,1039.5106162404277,572.85) translate(0 90.20000000000002)"/><use xlink:href="#A" transform="matrix(1,0,0,1,1039.5106162404277,572.85) translate(15.5 90.20000000000002)"/><use xlink:href="#B" transform="matrix(1,0,0,1,1039.5106162404277,572.85) translate(59.45 90.20000000000002)"/><use xlink:href="#j" transform="matrix(1,0,0,1,1039.5106162404277,572.85) translate(0 111.80000000000001)"/><use xlink:href="#f" transform="matrix(1,0,0,1,1039.5106162404277,572.85) translate(15.5 111.80000000000001)"/><use xlink:href="#g" transform="matrix(1,0,0,1,1039.5106162404277,572.85) translate(95.3 111.80000000000001)"/><use xlink:href="#C" transform="matrix(1,0,0,1,1039.5106162404277,572.85) translate(119.25 111.80000000000001)"/><use xlink:href="#j" transform="matrix(1,0,0,1,1039.5106162404277,718.35) translate(0 25.5)"/><use xlink:href="#p" transform="matrix(1,0,0,1,1039.5106162404277,718.35) translate(15.5 25.5)"/><use xlink:href="#q" transform="matrix(1,0,0,1,1039.5106162404277,718.35) translate(110.30000000000001 25.5)"/><use xlink:href="#j" transform="matrix(1,0,0,1,1039.5106162404277,718.35) translate(0 47.1)"/><use xlink:href="#r" transform="matrix(1,0,0,1,1039.5106162404277,718.35) translate(15.5 47.1)"/><use xlink:href="#q" transform="matrix(1,0,0,1,1039.5106162404277,718.35) translate(84.30000000000001 47.1)"/><use xlink:href="#j" transform="matrix(1,0,0,1,1039.5106162404277,718.35) translate(0 68.7)"/><use xlink:href="#s" transform="matrix(1,0,0,1,1039.5106162404277,718.35) translate(15.5 68.7)"/><use xlink:href="#t" transform="matrix(1,0,0,1,1039.5106162404277,718.35) translate(108.30000000000001 68.7)"/><path d="M929 559.25h36.5a12 12 0 0 1 12 12v86.5a12 12 0 0 0 12 12h20.63" stroke="#333" fill="none"/><path d="M929.02 559.75h-.5v-1h.5z" stroke="#333" stroke-width=".05" fill="#333"/><path d="M1024.9 669.75l-14.27 4.63v-9.26z" stroke="#333" fill="#333"/><use xlink:href="#D" transform="matrix(1,0,0,1,928.5106162404277,563.2500000000001) translate(0 14.4)"/><use xlink:href="#D" transform="matrix(1,0,0,1,996.5106162404279,639.5147450843758) translate(0 14.4)"/><path d="M607.5 807.25h360v279h-360z" stroke="#333" stroke-width="2" fill="#fff"/><path d="M607.5 844.85h360m-360 110.13h360" stroke="#333" stroke-width="2" fill="none"/><use xlink:href="#E" transform="matrix(1,0,0,1,615.5106162404277,815.25) translate(132.625 14.6)"/><use xlink:href="#e" transform="matrix(1,0,0,1,619.5106162404277,852.85) translate(0 29.5)"/><use xlink:href="#F" transform="matrix(1,0,0,1,619.5106162404277,852.85) translate(10.95 29.5)"/><use xlink:href="#g" transform="matrix(1,0,0,1,619.5106162404277,852.85) translate(102.8 29.5)"/><use xlink:href="#h" transform="matrix(1,0,0,1,619.5106162404277,852.85) translate(126.75 29.5)"/><use xlink:href="#i" transform="matrix(1,0,0,1,619.5106162404277,852.85) translate(152.75 29.5)"/><use xlink:href="#j" transform="matrix(1,0,0,1,619.5106162404277,852.85) translate(0 51.1)"/><use xlink:href="#G" transform="matrix(1,0,0,1,619.5106162404277,852.85) translate(15.5 51.1)"/><use xlink:href="#z" transform="matrix(1,0,0,1,619.5106162404277,852.85) translate(113.4 51.1)"/><use xlink:href="#j" transform="matrix(1,0,0,1,619.5106162404277,852.85) translate(0 72.7)"/><use xlink:href="#f" transform="matrix(1,0,0,1,619.5106162404277,852.85) translate(15.5 72.7)"/><use xlink:href="#g" transform="matrix(1,0,0,1,619.5106162404277,852.85) translate(95.3 72.7)"/><use xlink:href="#C" transform="matrix(1,0,0,1,619.5106162404277,852.85) translate(119.25 72.7)"/><g><use xlink:href="#j" transform="matrix(1,0,0,1,619.5106162404277,962.9828947002899) translate(0 29.19999999999999)"/><use xlink:href="#p" transform="matrix(1,0,0,1,619.5106162404277,962.9828947002899) translate(15.5 29.19999999999999)"/><use xlink:href="#q" transform="matrix(1,0,0,1,619.5106162404277,962.9828947002899) translate(110.30000000000001 29.19999999999999)"/><use xlink:href="#j" transform="matrix(1,0,0,1,619.5106162404277,962.9828947002899) translate(0 50.79999999999999)"/><use xlink:href="#r" transform="matrix(1,0,0,1,619.5106162404277,962.9828947002899) translate(15.5 50.79999999999999)"/><use xlink:href="#q" transform="matrix(1,0,0,1,619.5106162404277,962.9828947002899) translate(84.30000000000001 50.79999999999999)"/><use xlink:href="#j" transform="matrix(1,0,0,1,619.5106162404277,962.9828947002899) translate(0 72.39999999999999)"/><use xlink:href="#H" transform="matrix(1,0,0,1,619.5106162404277,962.9828947002899) translate(15.5 72.39999999999999)"/><use xlink:href="#q" transform="matrix(1,0,0,1,619.5106162404277,962.9828947002899) translate(91.25000000000001 72.39999999999999)"/><use xlink:href="#j" transform="matrix(1,0,0,1,619.5106162404277,962.9828947002899) translate(0 94)"/><use xlink:href="#s" transform="matrix(1,0,0,1,619.5106162404277,962.9828947002899) translate(15.5 94)"/><use xlink:href="#t" transform="matrix(1,0,0,1,619.5106162404277,962.9828947002899) translate(108.30000000000001 94)"/></g><path d="M787.5 805.75v-44.5a12 12 0 0 0-12-12h-16a12 12 0 0 1-12-12v-28.62" stroke="#333" fill="none"/><path d="M788 806.25h-1v-.5h1z" stroke="#333" stroke-width=".05" fill="#333"/><path d="M747.5 693.87l4.65 14.26h-9.27z" stroke="#333" fill="#333"/><g><use xlink:href="#I" transform="matrix(1,0,0,1,795.5106162404277,785.45) translate(0 14.4)"/></g><g><use xlink:href="#J" transform="matrix(1,0,0,1,709.8753613248034,691.45) translate(0 14.4)"/></g><path d="M1527.5 730.63h360v285h-360z" stroke="#333" stroke-width="2" fill="#fff"/><path d="M1527.5 768.23h360m-360 123.9h360" stroke="#333" stroke-width="2" fill="none"/><g><use xlink:href="#K" transform="matrix(1,0,0,1,1535.5106162404277,738.625) translate(144 14.6)"/></g><g><use xlink:href="#e" transform="matrix(1,0,0,1,1539.5106162404277,776.225) translate(0 25.19999999999999)"/><use xlink:href="#L" transform="matrix(1,0,0,1,1539.5106162404277,776.225) translate(10.95 25.19999999999999)"/><use xlink:href="#g" transform="matrix(1,0,0,1,1539.5106162404277,776.225) translate(90.9 25.19999999999999)"/><use xlink:href="#h" transform="matrix(1,0,0,1,1539.5106162404277,776.225) translate(114.85000000000001 25.19999999999999)"/><use xlink:href="#i" transform="matrix(1,0,0,1,1539.5106162404277,776.225) translate(140.85000000000002 25.19999999999999)"/><use xlink:href="#j" transform="matrix(1,0,0,1,1539.5106162404277,776.225) translate(0 46.79999999999999)"/><use xlink:href="#M" transform="matrix(1,0,0,1,1539.5106162404277,776.225) translate(15.5 46.79999999999999)"/><use xlink:href="#N" transform="matrix(1,0,0,1,1539.5106162404277,776.225) translate(106.45 46.79999999999999)"/><use xlink:href="#j" transform="matrix(1,0,0,1,1539.5106162404277,776.225) translate(0 68.39999999999999)"/><use xlink:href="#O" transform="matrix(1,0,0,1,1539.5106162404277,776.225) translate(15.5 68.39999999999999)"/><use xlink:href="#P" transform="matrix(1,0,0,1,1539.5106162404277,776.225) translate(91.45 68.39999999999999)"/><use xlink:href="#j" transform="matrix(1,0,0,1,1539.5106162404277,776.225) translate(0 90)"/><use xlink:href="#Q" transform="matrix(1,0,0,1,1539.5106162404277,776.225) translate(15.5 90)"/><use xlink:href="#o" transform="matrix(1,0,0,1,1539.5106162404277,776.225) translate(90.4 90)"/></g><g><use xlink:href="#j" transform="matrix(1,0,0,1,1539.5106162404277,900.125) translate(0 25.19999999999999)"/><use xlink:href="#p" transform="matrix(1,0,0,1,1539.5106162404277,900.125) translate(15.5 25.19999999999999)"/><use xlink:href="#q" transform="matrix(1,0,0,1,1539.5106162404277,900.125) translate(110.30000000000001 25.19999999999999)"/><use xlink:href="#j" transform="matrix(1,0,0,1,1539.5106162404277,900.125) translate(0 46.79999999999999)"/><use xlink:href="#r" transform="matrix(1,0,0,1,1539.5106162404277,900.125) translate(15.5 46.79999999999999)"/><use xlink:href="#q" transform="matrix(1,0,0,1,1539.5106162404277,900.125) translate(84.30000000000001 46.79999999999999)"/><use xlink:href="#j" transform="matrix(1,0,0,1,1539.5106162404277,900.125) translate(0 68.39999999999999)"/><use xlink:href="#H" transform="matrix(1,0,0,1,1539.5106162404277,900.125) translate(15.5 68.39999999999999)"/><use xlink:href="#q" transform="matrix(1,0,0,1,1539.5106162404277,900.125) translate(91.25000000000001 68.39999999999999)"/><use xlink:href="#j" transform="matrix(1,0,0,1,1539.5106162404277,900.125) translate(0 90)"/><use xlink:href="#s" transform="matrix(1,0,0,1,1539.5106162404277,900.125) translate(15.5 90)"/><use xlink:href="#t" transform="matrix(1,0,0,1,1539.5106162404277,900.125) translate(108.30000000000001 90)"/></g><path d="M1207.5 813.75v27.5a12 12 0 0 0 12 12h226a12 12 0 0 0 12-12V701.62a12 12 0 0 1 12-12h226a12 12 0 0 1 12 12v11.62" stroke="#333" fill="none"/><path d="M1208 813.76h-1v-.5h1z" stroke="#333" stroke-width=".05" fill="#333"/><path d="M1707.5 728l-4.63-14.26h9.28z" stroke="#333" fill="#333"/><path d="M1487.5 1187.25h360v458h-360z" stroke="#333" stroke-width="2" fill="#fff"/><path d="M1487.5 1224.85h360m-360 296.7h360" stroke="#333" stroke-width="2" fill="none"/><g><use xlink:href="#R" transform="matrix(1,0,0,1,1495.5106162404277,1195.25) translate(149.025 14.6)"/></g><g><use xlink:href="#e" transform="matrix(1,0,0,1,1499.5106162404277,1232.85) translate(0 25.300000000000004)"/><use xlink:href="#S" transform="matrix(1,0,0,1,1499.5106162404277,1232.85) translate(10.95 25.300000000000004)"/><use xlink:href="#g" transform="matrix(1,0,0,1,1499.5106162404277,1232.85) translate(80.85000000000001 25.300000000000004)"/><use xlink:href="#h" transform="matrix(1,0,0,1,1499.5106162404277,1232.85) translate(104.80000000000001 25.300000000000004)"/><use xlink:href="#i" transform="matrix(1,0,0,1,1499.5106162404277,1232.85) translate(130.8 25.300000000000004)"/><use xlink:href="#j" transform="matrix(1,0,0,1,1499.5106162404277,1232.85) translate(0 46.900000000000006)"/><use xlink:href="#T" transform="matrix(1,0,0,1,1499.5106162404277,1232.85) translate(15.5 46.900000000000006)"/><use xlink:href="#l" transform="matrix(1,0,0,1,1499.5106162404277,1232.85) translate(85.4 46.900000000000006)"/><use xlink:href="#j" transform="matrix(1,0,0,1,1499.5106162404277,1232.85) translate(0 68.50000000000001)"/><use xlink:href="#U" transform="matrix(1,0,0,1,1499.5106162404277,1232.85) translate(15.5 68.50000000000001)"/><use xlink:href="#l" transform="matrix(1,0,0,1,1499.5106162404277,1232.85) translate(107.35000000000001 68.50000000000001)"/><use xlink:href="#j" transform="matrix(1,0,0,1,1499.5106162404277,1232.85) translate(0 90.10000000000002)"/><use xlink:href="#V" transform="matrix(1,0,0,1,1499.5106162404277,1232.85) translate(15.5 90.10000000000002)"/><use xlink:href="#l" transform="matrix(1,0,0,1,1499.5106162404277,1232.85) translate(101.4 90.10000000000002)"/><use xlink:href="#j" transform="matrix(1,0,0,1,1499.5106162404277,1232.85) translate(0 111.70000000000002)"/><use xlink:href="#W" transform="matrix(1,0,0,1,1499.5106162404277,1232.85) translate(15.5 111.70000000000002)"/><use xlink:href="#l" transform="matrix(1,0,0,1,1499.5106162404277,1232.85) translate(90.30000000000001 111.70000000000002)"/><use xlink:href="#j" transform="matrix(1,0,0,1,1499.5106162404277,1232.85) translate(0 133.3)"/><use xlink:href="#X" transform="matrix(1,0,0,1,1499.5106162404277,1232.85) translate(15.5 133.3)"/><use xlink:href="#l" transform="matrix(1,0,0,1,1499.5106162404277,1232.85) translate(146.35000000000002 133.3)"/><use xlink:href="#j" transform="matrix(1,0,0,1,1499.5106162404277,1232.85) translate(0 154.9)"/><use xlink:href="#Y" transform="matrix(1,0,0,1,1499.5106162404277,1232.85) translate(15.5 154.9)"/><use xlink:href="#l" transform="matrix(1,0,0,1,1499.5106162404277,1232.85) translate(168.25 154.9)"/><use xlink:href="#j" transform="matrix(1,0,0,1,1499.5106162404277,1232.85) translate(0 176.5)"/><use xlink:href="#Z" transform="matrix(1,0,0,1,1499.5106162404277,1232.85) translate(15.5 176.5)"/><use xlink:href="#l" transform="matrix(1,0,0,1,1499.5106162404277,1232.85) translate(142.35000000000002 176.5)"/><use xlink:href="#j" transform="matrix(1,0,0,1,1499.5106162404277,1232.85) translate(0 198.1)"/><use xlink:href="#aa" transform="matrix(1,0,0,1,1499.5106162404277,1232.85) translate(15.5 198.1)"/><use xlink:href="#l" transform="matrix(1,0,0,1,1499.5106162404277,1232.85) translate(99.45 198.1)"/><use xlink:href="#j" transform="matrix(1,0,0,1,1499.5106162404277,1232.85) translate(0 219.7)"/><use xlink:href="#ab" transform="matrix(1,0,0,1,1499.5106162404277,1232.85) translate(15.5 219.7)"/><use xlink:href="#l" transform="matrix(1,0,0,1,1499.5106162404277,1232.85) translate(110.4 219.7)"/><use xlink:href="#j" transform="matrix(1,0,0,1,1499.5106162404277,1232.85) translate(0 241.29999999999998)"/><use xlink:href="#ac" transform="matrix(1,0,0,1,1499.5106162404277,1232.85) translate(15.5 241.29999999999998)"/><use xlink:href="#l" transform="matrix(1,0,0,1,1499.5106162404277,1232.85) translate(110.4 241.29999999999998)"/><use xlink:href="#ad" transform="matrix(1,0,0,1,1499.5106162404277,1232.85) translate(0 262.9)"/><use xlink:href="#L" transform="matrix(1,0,0,1,1499.5106162404277,1232.85) translate(20.5 262.9)"/><use xlink:href="#g" transform="matrix(1,0,0,1,1499.5106162404277,1232.85) translate(100.45 262.9)"/><use xlink:href="#C" transform="matrix(1,0,0,1,1499.5106162404277,1232.85) translate(124.4 262.9)"/></g><g><use xlink:href="#j" transform="matrix(1,0,0,1,1499.5106162404277,1529.55) translate(0 25.19999999999999)"/><use xlink:href="#p" transform="matrix(1,0,0,1,1499.5106162404277,1529.55) translate(15.5 25.19999999999999)"/><use xlink:href="#q" transform="matrix(1,0,0,1,1499.5106162404277,1529.55) translate(110.30000000000001 25.19999999999999)"/><use xlink:href="#j" transform="matrix(1,0,0,1,1499.5106162404277,1529.55) translate(0 46.79999999999999)"/><use xlink:href="#r" transform="matrix(1,0,0,1,1499.5106162404277,1529.55) translate(15.5 46.79999999999999)"/><use xlink:href="#q" transform="matrix(1,0,0,1,1499.5106162404277,1529.55) translate(84.30000000000001 46.79999999999999)"/><use xlink:href="#j" transform="matrix(1,0,0,1,1499.5106162404277,1529.55) translate(0 68.39999999999999)"/><use xlink:href="#H" transform="matrix(1,0,0,1,1499.5106162404277,1529.55) translate(15.5 68.39999999999999)"/><use xlink:href="#q" transform="matrix(1,0,0,1,1499.5106162404277,1529.55) translate(91.25000000000001 68.39999999999999)"/><use xlink:href="#j" transform="matrix(1,0,0,1,1499.5106162404277,1529.55) translate(0 90)"/><use xlink:href="#s" transform="matrix(1,0,0,1,1499.5106162404277,1529.55) translate(15.5 90)"/><use xlink:href="#t" transform="matrix(1,0,0,1,1499.5106162404277,1529.55) translate(108.30000000000001 90)"/></g><path d="M1707.5 1017.13v72.3a12 12 0 0 1-12 12h-16a12 12 0 0 0-12 12v56.44" stroke="#333" fill="none"/><path d="M1708 1017.14h-1v-.5h1z" stroke="#333" stroke-width=".05" fill="#333"/><path d="M1667.5 1184.63l-4.63-14.26h9.28z" stroke="#333" fill="#333"/><g><use xlink:href="#D" transform="matrix(1,0,0,1,1669.5106162404277,1015.825) translate(0 14.4)"/></g><g><use xlink:href="#ae" transform="matrix(1,0,0,1,1680.145871156052,1165.45) translate(0 14.4)"/></g><path d="M1547.5 360h360v199h-360z" stroke="#333" stroke-width="2" fill="#fff"/><path d="M1547.5 397.6h360m-360 102.3h360" stroke="#333" stroke-width="2" fill="none"/><g><use xlink:href="#af" transform="matrix(1,0,0,1,1555.5106162404277,368) translate(140.075 14.6)"/></g><g><use xlink:href="#e" transform="matrix(1,0,0,1,1559.5106162404277,405.6) translate(0 25.5)"/><use xlink:href="#ag" transform="matrix(1,0,0,1,1559.5106162404277,405.6) translate(10.95 25.5)"/><use xlink:href="#g" transform="matrix(1,0,0,1,1559.5106162404277,405.6) translate(98.75 25.5)"/><use xlink:href="#h" transform="matrix(1,0,0,1,1559.5106162404277,405.6) translate(122.7 25.5)"/><use xlink:href="#i" transform="matrix(1,0,0,1,1559.5106162404277,405.6) translate(148.7 25.5)"/><use xlink:href="#j" transform="matrix(1,0,0,1,1559.5106162404277,405.6) translate(0 47.1)"/><use xlink:href="#ah" transform="matrix(1,0,0,1,1559.5106162404277,405.6) translate(15.5 47.1)"/><use xlink:href="#ai" transform="matrix(1,0,0,1,1559.5106162404277,405.6) translate(104.35000000000001 47.1)"/><use xlink:href="#j" transform="matrix(1,0,0,1,1559.5106162404277,405.6) translate(0 68.7)"/><use xlink:href="#f" transform="matrix(1,0,0,1,1559.5106162404277,405.6) translate(15.5 68.7)"/><use xlink:href="#g" transform="matrix(1,0,0,1,1559.5106162404277,405.6) translate(95.3 68.7)"/><use xlink:href="#C" transform="matrix(1,0,0,1,1559.5106162404277,405.6) translate(119.25 68.7)"/></g><g><use xlink:href="#j" transform="matrix(1,0,0,1,1559.5106162404277,507.90000000000003) translate(0 25.6)"/><use xlink:href="#s" transform="matrix(1,0,0,1,1559.5106162404277,507.90000000000003) translate(15.5 25.6)"/><use xlink:href="#t" transform="matrix(1,0,0,1,1559.5106162404277,507.90000000000003) translate(108.30000000000001 25.6)"/></g><path d="M1530.13 459.5h-11.62a12 12 0 0 1-12-12v-49.25a12 12 0 0 0-12-12h-735a12 12 0 0 0-12 12v27.5" stroke="#333" fill="none"/><path d="M1544.9 459.5l-14.27 4.63v-9.26z" stroke="#333" fill="#333"/><path d="M748 426.25h-1v-.5h1z" stroke="#333" stroke-width=".05" fill="#333"/><g><use xlink:href="#D" transform="matrix(1,0,0,1,1517.2069846923052,372.15803787212434) translate(0 14.4)"/></g><g><use xlink:href="#I" transform="matrix(1,0,0,1,755.5106162404277,405.45000000000005) translate(0 14.4)"/></g><path d="M1727.5 560.5V588a12 12 0 0 0 12 12h177a12 12 0 0 1 12 12v249.13a12 12 0 0 1-12 12h-11.6" stroke="#333" fill="none"/><path d="M1728 560.5h-1v-.5h1z" stroke="#333" stroke-width=".05" fill="#333"/><path d="M1890.13 873.13l14.26-4.64v9.26z" stroke="#333" fill="#333"/><g><use xlink:href="#D" transform="matrix(1,0,0,1,1689.5106162404275,559.2) translate(0 14.4)"/></g><g><use xlink:href="#D" transform="matrix(1,0,0,1,1888.5106162404281,881.7602549156243) translate(0 14.4)"/></g><path d="M2087.5 513.25h360v221h-360z" stroke="#333" stroke-width="2" fill="#fff"/><path d="M2087.5 550.85h360m-360 123.9h360" stroke="#333" stroke-width="2" fill="none"/><g><use xlink:href="#aj" transform="matrix(1,0,0,1,2095.5106162404277,521.25) translate(126.025 14.6)"/></g><g><use xlink:href="#e" transform="matrix(1,0,0,1,2099.5106162404277,558.85) translate(0 25.19999999999999)"/><use xlink:href="#ak" transform="matrix(1,0,0,1,2099.5106162404277,558.85) translate(10.95 25.19999999999999)"/><use xlink:href="#g" transform="matrix(1,0,0,1,2099.5106162404277,558.85) translate(126.85000000000001 25.19999999999999)"/><use xlink:href="#h" transform="matrix(1,0,0,1,2099.5106162404277,558.85) translate(150.8 25.19999999999999)"/><use xlink:href="#al" transform="matrix(1,0,0,1,2099.5106162404277,558.85) translate(176.8 25.19999999999999)"/><use xlink:href="#am" transform="matrix(1,0,0,1,2099.5106162404277,558.85) translate(216.8 25.19999999999999)"/><use xlink:href="#j" transform="matrix(1,0,0,1,2099.5106162404277,558.85) translate(0 46.79999999999999)"/><use xlink:href="#an" transform="matrix(1,0,0,1,2099.5106162404277,558.85) translate(15.5 46.79999999999999)"/><use xlink:href="#l" transform="matrix(1,0,0,1,2099.5106162404277,558.85) translate(82.45 46.79999999999999)"/><use xlink:href="#j" transform="matrix(1,0,0,1,2099.5106162404277,558.85) translate(0 68.39999999999999)"/><use xlink:href="#f" transform="matrix(1,0,0,1,2099.5106162404277,558.85) translate(15.5 68.39999999999999)"/><use xlink:href="#g" transform="matrix(1,0,0,1,2099.5106162404277,558.85) translate(95.3 68.39999999999999)"/><use xlink:href="#ao" transform="matrix(1,0,0,1,2099.5106162404277,558.85) translate(119.25 68.39999999999999)"/><use xlink:href="#ap" transform="matrix(1,0,0,1,2099.5106162404277,558.85) translate(0 90)"/></g><path d="M1909 459.5h76.5a12 12 0 0 1 12 12v140.25a12 12 0 0 0 12 12h60.63" stroke="#333" fill="none"/><path d="M1909.02 460h-.5v-1h.5z" stroke="#333" stroke-width=".05" fill="#333"/><path d="M2084.9 623.75l-14.27 4.63v-9.26z" stroke="#333" fill="#333"/><g><use xlink:href="#D" transform="matrix(1,0,0,1,1908.5106162404277,463.49999999999994) translate(0 14.4)"/></g><g><use xlink:href="#D" transform="matrix(1,0,0,1,2056.5106162404277,593.5147450843759) translate(0 14.4)"/></g><defs><path fill="#a9afb8" d="M24-248c120-7 223 5 221 122C244-46 201 0 124 0H24v-248zM76-40c74 7 117-18 117-86 0-67-45-88-117-82v168" id="aq"/><path fill="#a9afb8" d="M25-224v-37h50v37H25zM25 0v-190h50V0H25" id="ar"/><path fill="#a9afb8" d="M133-34C117-15 103 5 69 4 32 3 11-16 11-54c-1-60 55-63 116-61 1-26-3-47-28-47-18 1-26 9-28 27l-52-2c7-38 36-58 82-57s74 22 75 68l1 82c-1 14 12 18 25 15v27c-30 8-71 5-69-32zm-48 3c29 0 43-24 42-57-32 0-66-3-65 30 0 17 8 27 23 27" id="as"/><path fill="#a9afb8" d="M195-6C206 82 75 100 31 46c-4-6-6-13-8-21l49-6c3 16 16 24 34 25 40 0 42-37 40-79-11 22-30 35-61 35-53 0-70-43-70-97 0-56 18-96 73-97 30 0 46 14 59 34l2-30h47zm-90-29c32 0 41-27 41-63 0-35-9-62-40-62-32 0-39 29-40 63 0 36 9 62 39 62" id="at"/><path fill="#a9afb8" d="M135-150c-39-12-60 13-60 57V0H25l-1-190h47c2 13-1 29 3 40 6-28 27-53 61-41v41" id="au"/><path fill="#a9afb8" d="M220-157c-53 9-28 100-34 157h-49v-107c1-27-5-49-29-50C55-147 81-57 75 0H25l-1-190h47c2 12-1 28 3 38 10-53 101-56 108 0 13-22 24-43 59-42 82 1 51 116 57 194h-49v-107c-1-25-5-48-29-50" id="av"/><g id="a"><use transform="matrix(0.0728395061728395,0,0,0.0728395061728395,0,0)" xlink:href="#aq"/><use transform="matrix(0.0728395061728395,0,0,0.0728395061728395,18.86543209876543,0)" xlink:href="#ar"/><use transform="matrix(0.0728395061728395,0,0,0.0728395061728395,26.14938271604938,0)" xlink:href="#as"/><use transform="matrix(0.0728395061728395,0,0,0.0728395061728395,40.717283950617286,0)" xlink:href="#at"/><use transform="matrix(0.0728395061728395,0,0,0.0728395061728395,56.66913580246913,0)" xlink:href="#au"/><use transform="matrix(0.0728395061728395,0,0,0.0728395061728395,66.86666666666666,0)" xlink:href="#as"/><use transform="matrix(0.0728395061728395,0,0,0.0728395061728395,81.43456790123457,0)" xlink:href="#av"/><use transform="matrix(0.0728395061728395,0,0,0.0728395061728395,104.7432098765432,0)" xlink:href="#as"/></g><path fill="#a9afb8" d="M88-194c31-1 46 15 58 34l-1-101h50l1 261h-48c-2-10 0-23-3-31C134-8 116 4 84 4 32 4 16-41 15-95c0-56 19-97 73-99zm17 164c33 0 40-30 41-66 1-37-9-64-41-64s-38 30-39 65c0 43 13 65 39 65" id="aw"/><path fill="#a9afb8" d="M185-48c-13 30-37 53-82 52C43 2 14-33 14-96s30-98 90-98c62 0 83 45 84 108H66c0 31 8 55 39 56 18 0 30-7 34-22zm-45-69c5-46-57-63-70-21-2 6-4 13-4 21h74" id="ax"/><g id="b"><use transform="matrix(0.0728395061728395,0,0,0.0728395061728395,0,0)" xlink:href="#aw"/><use transform="matrix(0.0728395061728395,0,0,0.0728395061728395,15.95185185185185,0)" xlink:href="#ax"/></g><path fill="#a9afb8" d="M67-125c0 53 21 87 73 88 37 1 54-22 65-47l45 17C233-25 199 4 140 4 58 4 20-42 15-125 8-235 124-281 211-232c18 10 29 29 36 50l-46 12c-8-25-30-41-62-41-52 0-71 34-72 86" id="ay"/><path fill="#a9afb8" d="M25 0v-261h50V0H25" id="az"/><path fill="#a9afb8" d="M137-138c1-29-70-34-71-4 15 46 118 7 119 86 1 83-164 76-172 9l43-7c4 19 20 25 44 25 33 8 57-30 24-41C81-84 22-81 20-136c-2-80 154-74 161-7" id="aA"/><g id="c"><use transform="matrix(0.0728395061728395,0,0,0.0728395061728395,0,0)" xlink:href="#ay"/><use transform="matrix(0.0728395061728395,0,0,0.0728395061728395,18.86543209876543,0)" xlink:href="#az"/><use transform="matrix(0.0728395061728395,0,0,0.0728395061728395,26.14938271604938,0)" xlink:href="#as"/><use transform="matrix(0.0728395061728395,0,0,0.0728395061728395,40.717283950617286,0)" xlink:href="#aA"/><use transform="matrix(0.0728395061728395,0,0,0.0728395061728395,55.28518518518518,0)" xlink:href="#aA"/><use transform="matrix(0.0728395061728395,0,0,0.0728395061728395,69.85308641975308,0)" xlink:href="#ax"/></g><path fill="#333" d="M212-179c-10-28-35-45-73-45-59 0-87 40-87 99 0 60 29 101 89 101 43 0 62-24 78-52l27 14C228-24 195 4 139 4 59 4 22-46 18-125c-6-104 99-153 187-111 19 9 31 26 39 46" id="aB"/><path fill="#333" d="M24 0v-261h32V0H24" id="aC"/><path fill="#333" d="M24-231v-30h32v30H24zM24 0v-190h32V0H24" id="aD"/><path fill="#333" d="M100-194c63 0 86 42 84 106H49c0 40 14 67 53 68 26 1 43-12 49-29l28 8c-11 28-37 45-77 45C44 4 14-33 15-96c1-61 26-98 85-98zm52 81c6-60-76-77-97-28-3 7-6 17-6 28h103" id="aE"/><path fill="#333" d="M117-194c89-4 53 116 60 194h-32v-121c0-31-8-49-39-48C34-167 62-67 57 0H25l-1-190h30c1 10-1 24 2 32 11-22 29-35 61-36" id="aF"/><path fill="#333" d="M59-47c-2 24 18 29 38 22v24C64 9 27 4 27-40v-127H5v-23h24l9-43h21v43h35v23H59v120" id="aG"/><g id="d"><use transform="matrix(0.05,0,0,0.05,0,0)" xlink:href="#aB"/><use transform="matrix(0.05,0,0,0.05,12.950000000000001,0)" xlink:href="#aC"/><use transform="matrix(0.05,0,0,0.05,16.900000000000002,0)" xlink:href="#aD"/><use transform="matrix(0.05,0,0,0.05,20.85,0)" xlink:href="#aE"/><use transform="matrix(0.05,0,0,0.05,30.85,0)" xlink:href="#aF"/><use transform="matrix(0.05,0,0,0.05,40.85,0)" xlink:href="#aG"/><use transform="matrix(0.05,0,0,0.05,45.85,0)" xlink:href="#aE"/></g><path fill="#333" d="M16-82v-28h88v28H16" id="aH"/><use transform="matrix(0.05,0,0,0.05,0,0)" xlink:href="#aH" id="e"/><path fill="#333" d="M85-194c31 0 48 13 60 33l-1-100h32l1 261h-30c-2-10 0-23-3-31C134-8 116 4 85 4 32 4 16-35 15-94c0-66 23-100 70-100zm9 24c-40 0-46 34-46 75 0 40 6 74 45 74 42 0 51-32 51-76 0-42-9-74-50-73" id="aI"/><path fill="#333" d="M33-154v-36h34v36H33zM33 0v-36h34V0H33" id="aJ"/><g id="f"><use transform="matrix(0.05,0,0,0.05,0,0)" xlink:href="#aD"/><use transform="matrix(0.05,0,0,0.05,3.95,0)" xlink:href="#aI"/><use transform="matrix(0.05,0,0,0.05,13.949999999999998,0)" xlink:href="#aB"/><use transform="matrix(0.05,0,0,0.05,26.899999999999995,0)" xlink:href="#aC"/><use transform="matrix(0.05,0,0,0.05,30.849999999999994,0)" xlink:href="#aD"/><use transform="matrix(0.05,0,0,0.05,34.8,0)" xlink:href="#aE"/><use transform="matrix(0.05,0,0,0.05,44.8,0)" xlink:href="#aF"/><use transform="matrix(0.05,0,0,0.05,54.79999999999999,0)" xlink:href="#aG"/><use transform="matrix(0.05,0,0,0.05,59.79999999999999,0)" xlink:href="#aE"/><use transform="matrix(0.05,0,0,0.05,69.8,0)" xlink:href="#aJ"/></g><g id="g"><use transform="matrix(0.05,0,0,0.05,0,0)" xlink:href="#aD"/><use transform="matrix(0.05,0,0,0.05,3.95,0)" xlink:href="#aF"/><use transform="matrix(0.05,0,0,0.05,13.949999999999998,0)" xlink:href="#aG"/></g><path fill="#333" d="M30-248c87 1 191-15 191 75 0 78-77 80-158 76V0H30v-248zm33 125c57 0 124 11 124-50 0-59-68-47-124-48v98" id="aK"/><path fill="#333" d="M143 0L79-87 56-68V0H24v-261h32v163l83-92h37l-77 82L181 0h-38" id="aL"/><g id="h"><use transform="matrix(0.05,0,0,0.05,0,0)" xlink:href="#aK"/><use transform="matrix(0.05,0,0,0.05,12,0)" xlink:href="#aL"/></g><path fill="#333" d="M141-36C126-15 110 5 73 4 37 3 15-17 15-53c-1-64 63-63 125-63 3-35-9-54-41-54-24 1-41 7-42 31l-33-3c5-37 33-52 76-52 45 0 72 20 72 64v82c-1 20 7 32 28 27v20c-31 9-61-2-59-35zM48-53c0 20 12 33 32 33 41-3 63-29 60-74-43 2-92-5-92 41" id="aM"/><path fill="#333" d="M84 4C-5 8 30-112 23-190h32v120c0 31 7 50 39 49 72-2 45-101 50-169h31l1 190h-30c-1-10 1-25-2-33-11 22-28 36-60 37" id="aN"/><path fill="#333" d="M100-194c62-1 85 37 85 99 1 63-27 99-86 99S16-35 15-95c0-66 28-99 85-99zM99-20c44 1 53-31 53-75 0-43-8-75-51-75s-53 32-53 75 10 74 51 75" id="aO"/><path fill="#333" d="M-5 72V49h209v23H-5" id="aP"/><path fill="#333" d="M96-169c-40 0-48 33-48 73s9 75 48 75c24 0 41-14 43-38l32 2c-6 37-31 61-74 61-59 0-76-41-82-99-10-93 101-131 147-64 4 7 5 14 7 22l-32 3c-4-21-16-35-41-35" id="aQ"/><path fill="#333" d="M114-163C36-179 61-72 57 0H25l-1-190h30c1 12-1 29 2 39 6-27 23-49 58-41v29" id="aR"/><path fill="#333" d="M210-169c-67 3-38 105-44 169h-31v-121c0-29-5-50-35-48C34-165 62-65 56 0H25l-1-190h30c1 10-1 24 2 32 10-44 99-50 107 0 11-21 27-35 58-36 85-2 47 119 55 194h-31v-121c0-29-5-49-35-48" id="aS"/><g id="i"><use transform="matrix(0.05,0,0,0.05,0,0)" xlink:href="#aM"/><use transform="matrix(0.05,0,0,0.05,10,0)" xlink:href="#aN"/><use transform="matrix(0.05,0,0,0.05,20,0)" xlink:href="#aG"/><use transform="matrix(0.05,0,0,0.05,25,0)" xlink:href="#aO"/><use transform="matrix(0.05,0,0,0.05,35,0)" xlink:href="#aP"/><use transform="matrix(0.05,0,0,0.05,45,0)" xlink:href="#aD"/><use transform="matrix(0.05,0,0,0.05,48.95,0)" xlink:href="#aF"/><use transform="matrix(0.05,0,0,0.05,58.95,0)" xlink:href="#aQ"/><use transform="matrix(0.05,0,0,0.05,67.95,0)" xlink:href="#aR"/><use transform="matrix(0.05,0,0,0.05,73.9,0)" xlink:href="#aE"/><use transform="matrix(0.05,0,0,0.05,83.9,0)" xlink:href="#aS"/><use transform="matrix(0.05,0,0,0.05,98.85000000000001,0)" xlink:href="#aE"/><use transform="matrix(0.05,0,0,0.05,108.85000000000001,0)" xlink:href="#aF"/><use transform="matrix(0.05,0,0,0.05,118.85000000000001,0)" xlink:href="#aG"/></g><path fill="#333" d="M118-107v75H92v-75H18v-26h74v-75h26v75h74v26h-74" id="aT"/><use transform="matrix(0.05,0,0,0.05,0,0)" xlink:href="#aT" id="j"/><g id="k"><use transform="matrix(0.05,0,0,0.05,0,0)" xlink:href="#aF"/><use transform="matrix(0.05,0,0,0.05,10,0)" xlink:href="#aS"/><use transform="matrix(0.05,0,0,0.05,24.950000000000003,0)" xlink:href="#aB"/><use transform="matrix(0.05,0,0,0.05,37.900000000000006,0)" xlink:href="#aC"/><use transform="matrix(0.05,0,0,0.05,41.85000000000001,0)" xlink:href="#aD"/><use transform="matrix(0.05,0,0,0.05,45.80000000000001,0)" xlink:href="#aE"/><use transform="matrix(0.05,0,0,0.05,55.80000000000001,0)" xlink:href="#aF"/><use transform="matrix(0.05,0,0,0.05,65.80000000000001,0)" xlink:href="#aG"/><use transform="matrix(0.05,0,0,0.05,70.80000000000001,0)" xlink:href="#aE"/><use transform="matrix(0.05,0,0,0.05,80.80000000000001,0)" xlink:href="#aJ"/></g><path fill="#333" d="M108 0H70L1-190h34L89-25l56-165h34" id="aU"/><path fill="#333" d="M106-169C34-169 62-67 57 0H25v-261h32l-1 103c12-21 28-36 61-36 89 0 53 116 60 194h-32v-121c2-32-8-49-39-48" id="aV"/><g id="l"><use transform="matrix(0.05,0,0,0.05,0,0)" xlink:href="#aU"/><use transform="matrix(0.05,0,0,0.05,9,0)" xlink:href="#aM"/><use transform="matrix(0.05,0,0,0.05,19,0)" xlink:href="#aR"/><use transform="matrix(0.05,0,0,0.05,24.95,0)" xlink:href="#aQ"/><use transform="matrix(0.05,0,0,0.05,33.95,0)" xlink:href="#aV"/><use transform="matrix(0.05,0,0,0.05,43.95,0)" xlink:href="#aM"/><use transform="matrix(0.05,0,0,0.05,53.95,0)" xlink:href="#aR"/></g><path fill="#333" d="M63-220v92h138v28H63V0H30v-248h175v28H63" id="aW"/><g id="m"><use transform="matrix(0.05,0,0,0.05,0,0)" xlink:href="#aF"/><use transform="matrix(0.05,0,0,0.05,10,0)" xlink:href="#aO"/><use transform="matrix(0.05,0,0,0.05,20,0)" xlink:href="#aB"/><use transform="matrix(0.05,0,0,0.05,32.95,0)" xlink:href="#aK"/><use transform="matrix(0.05,0,0,0.05,44.95,0)" xlink:href="#aW"/><use transform="matrix(0.05,0,0,0.05,55.900000000000006,0)" xlink:href="#aJ"/></g><path fill="#333" d="M135-143c-3-34-86-38-87 0 15 53 115 12 119 90S17 21 10-45l28-5c4 36 97 45 98 0-10-56-113-15-118-90-4-57 82-63 122-42 12 7 21 19 24 35" id="aX"/><path fill="#333" d="M30 0v-248h187v28H63v79h144v27H63v87h162V0H30" id="aY"/><g id="n"><use transform="matrix(0.05,0,0,0.05,0,0)" xlink:href="#aI"/><use transform="matrix(0.05,0,0,0.05,10,0)" xlink:href="#aX"/><use transform="matrix(0.05,0,0,0.05,19,0)" xlink:href="#aY"/><use transform="matrix(0.05,0,0,0.05,31,0)" xlink:href="#aS"/><use transform="matrix(0.05,0,0,0.05,45.95,0)" xlink:href="#aM"/><use transform="matrix(0.05,0,0,0.05,55.95,0)" xlink:href="#aD"/><use transform="matrix(0.05,0,0,0.05,59.900000000000006,0)" xlink:href="#aC"/><use transform="matrix(0.05,0,0,0.05,63.85,0)" xlink:href="#aJ"/></g><g id="o"><use transform="matrix(0.05,0,0,0.05,0,0)" xlink:href="#aU"/><use transform="matrix(0.05,0,0,0.05,9,0)" xlink:href="#aM"/><use transform="matrix(0.05,0,0,0.05,19,0)" xlink:href="#aR"/><use transform="matrix(0.05,0,0,0.05,24.95,0)" xlink:href="#aQ"/><use transform="matrix(0.05,0,0,0.05,33.95,0)" xlink:href="#aV"/><use transform="matrix(0.05,0,0,0.05,43.95,0)" xlink:href="#aM"/><use transform="matrix(0.05,0,0,0.05,53.95,0)" xlink:href="#aR"/></g><path fill="#333" d="M87 75C49 33 22-17 22-94c0-76 28-126 65-167h31c-38 41-64 92-64 168S80 34 118 75H87" id="aZ"/><path fill="#333" d="M33-261c38 41 65 92 65 168S71 34 33 75H2C39 34 66-17 66-93S39-220 2-261h31" id="ba"/><g id="p"><use transform="matrix(0.05,0,0,0.05,0,0)" xlink:href="#aB"/><use transform="matrix(0.05,0,0,0.05,12.950000000000001,0)" xlink:href="#aM"/><use transform="matrix(0.05,0,0,0.05,22.950000000000003,0)" xlink:href="#aI"/><use transform="matrix(0.05,0,0,0.05,32.95,0)" xlink:href="#aM"/><use transform="matrix(0.05,0,0,0.05,42.95,0)" xlink:href="#aX"/><use transform="matrix(0.05,0,0,0.05,51.95,0)" xlink:href="#aG"/><use transform="matrix(0.05,0,0,0.05,56.95,0)" xlink:href="#aR"/><use transform="matrix(0.05,0,0,0.05,62.900000000000006,0)" xlink:href="#aO"/><use transform="matrix(0.05,0,0,0.05,72.9,0)" xlink:href="#aZ"/><use transform="matrix(0.05,0,0,0.05,78.85000000000001,0)" xlink:href="#ba"/><use transform="matrix(0.05,0,0,0.05,84.80000000000001,0)" xlink:href="#aJ"/></g><g id="q"><use transform="matrix(0.05,0,0,0.05,0,0)" xlink:href="#aU"/><use transform="matrix(0.05,0,0,0.05,9,0)" xlink:href="#aO"/><use transform="matrix(0.05,0,0,0.05,19,0)" xlink:href="#aD"/><use transform="matrix(0.05,0,0,0.05,22.95,0)" xlink:href="#aI"/></g><g id="r"><use transform="matrix(0.05,0,0,0.05,0,0)" xlink:href="#aY"/><use transform="matrix(0.05,0,0,0.05,12,0)" xlink:href="#aI"/><use transform="matrix(0.05,0,0,0.05,22,0)" xlink:href="#aD"/><use transform="matrix(0.05,0,0,0.05,25.950000000000003,0)" xlink:href="#aG"/><use transform="matrix(0.05,0,0,0.05,30.950000000000003,0)" xlink:href="#aM"/><use transform="matrix(0.05,0,0,0.05,40.95,0)" xlink:href="#aR"/><use transform="matrix(0.05,0,0,0.05,46.900000000000006,0)" xlink:href="#aZ"/><use transform="matrix(0.05,0,0,0.05,52.85,0)" xlink:href="#ba"/><use transform="matrix(0.05,0,0,0.05,58.80000000000001,0)" xlink:href="#aJ"/></g><g id="s"><use transform="matrix(0.05,0,0,0.05,0,0)" xlink:href="#aB"/><use transform="matrix(0.05,0,0,0.05,12.950000000000001,0)" xlink:href="#aO"/><use transform="matrix(0.05,0,0,0.05,22.950000000000003,0)" xlink:href="#aF"/><use transform="matrix(0.05,0,0,0.05,32.95,0)" xlink:href="#aX"/><use transform="matrix(0.05,0,0,0.05,41.95,0)" xlink:href="#aN"/><use transform="matrix(0.05,0,0,0.05,51.95,0)" xlink:href="#aC"/><use transform="matrix(0.05,0,0,0.05,55.900000000000006,0)" xlink:href="#aG"/><use transform="matrix(0.05,0,0,0.05,60.900000000000006,0)" xlink:href="#aM"/><use transform="matrix(0.05,0,0,0.05,70.9,0)" xlink:href="#aZ"/><use transform="matrix(0.05,0,0,0.05,76.85000000000001,0)" xlink:href="#ba"/><use transform="matrix(0.05,0,0,0.05,82.80000000000001,0)" xlink:href="#aJ"/></g><path fill="#333" d="M205 0l-28-72H64L36 0H1l101-248h38L239 0h-34zm-38-99l-47-123c-12 45-31 82-46 123h93" id="bb"/><path fill="#333" d="M179-190L93 31C79 59 56 82 12 73V49c39 6 53-20 64-50L1-190h34L92-34l54-156h33" id="bc"/><path fill="#333" d="M30 0v-248h33v221h125V0H30" id="bd"/><g id="t"><use transform="matrix(0.05,0,0,0.05,0,0)" xlink:href="#bb"/><use transform="matrix(0.05,0,0,0.05,12,0)" xlink:href="#aR"/><use transform="matrix(0.05,0,0,0.05,17.95,0)" xlink:href="#aR"/><use transform="matrix(0.05,0,0,0.05,23.9,0)" xlink:href="#aM"/><use transform="matrix(0.05,0,0,0.05,33.9,0)" xlink:href="#bc"/><use transform="matrix(0.05,0,0,0.05,42.9,0)" xlink:href="#bd"/><use transform="matrix(0.05,0,0,0.05,52.900000000000006,0)" xlink:href="#aD"/><use transform="matrix(0.05,0,0,0.05,56.85,0)" xlink:href="#aX"/><use transform="matrix(0.05,0,0,0.05,65.85,0)" xlink:href="#aG"/></g><path fill="#333" d="M177-190C167-65 218 103 67 71c-23-6-38-20-44-43l32-5c15 47 100 32 89-28v-30C133-14 115 1 83 1 29 1 15-40 15-95c0-56 16-97 71-98 29-1 48 16 59 35 1-10 0-23 2-32h30zM94-22c36 0 50-32 50-73 0-42-14-75-50-75-39 0-46 34-46 75s6 73 46 73" id="be"/><g id="u"><use transform="matrix(0.05,0,0,0.05,0,0)" xlink:href="#bd"/><use transform="matrix(0.05,0,0,0.05,10,0)" xlink:href="#aO"/><use transform="matrix(0.05,0,0,0.05,20,0)" xlink:href="#be"/><use transform="matrix(0.05,0,0,0.05,30,0)" xlink:href="#aD"/><use transform="matrix(0.05,0,0,0.05,33.95,0)" xlink:href="#aF"/></g><use transform="matrix(0.05,0,0,0.05,0,0)" xlink:href="#aH" id="v"/><g id="w"><use transform="matrix(0.05,0,0,0.05,0,0)" xlink:href="#aD"/><use transform="matrix(0.05,0,0,0.05,3.95,0)" xlink:href="#aI"/><use transform="matrix(0.05,0,0,0.05,13.949999999999998,0)" xlink:href="#bd"/><use transform="matrix(0.05,0,0,0.05,23.95,0)" xlink:href="#aO"/><use transform="matrix(0.05,0,0,0.05,33.95,0)" xlink:href="#be"/><use transform="matrix(0.05,0,0,0.05,43.95,0)" xlink:href="#aD"/><use transform="matrix(0.05,0,0,0.05,47.900000000000006,0)" xlink:href="#aF"/><use transform="matrix(0.05,0,0,0.05,57.900000000000006,0)" xlink:href="#aJ"/></g><g id="x"><use transform="matrix(0.05,0,0,0.05,0,0)" xlink:href="#aI"/><use transform="matrix(0.05,0,0,0.05,10,0)" xlink:href="#aX"/><use transform="matrix(0.05,0,0,0.05,19,0)" xlink:href="#bd"/><use transform="matrix(0.05,0,0,0.05,29,0)" xlink:href="#aO"/><use transform="matrix(0.05,0,0,0.05,39,0)" xlink:href="#be"/><use transform="matrix(0.05,0,0,0.05,49,0)" xlink:href="#aD"/><use transform="matrix(0.05,0,0,0.05,52.95,0)" xlink:href="#aF"/><use transform="matrix(0.05,0,0,0.05,62.95,0)" xlink:href="#aJ"/></g><path fill="#333" d="M185-189c-5-48-123-54-124 2 14 75 158 14 163 119 3 78-121 87-175 55-17-10-28-26-33-46l33-7c5 56 141 63 141-1 0-78-155-14-162-118-5-82 145-84 179-34 5 7 8 16 11 25" id="bf"/><g id="y"><use transform="matrix(0.05,0,0,0.05,0,0)" xlink:href="#aI"/><use transform="matrix(0.05,0,0,0.05,10,0)" xlink:href="#aX"/><use transform="matrix(0.05,0,0,0.05,19,0)" xlink:href="#bf"/><use transform="matrix(0.05,0,0,0.05,31,0)" xlink:href="#aE"/><use transform="matrix(0.05,0,0,0.05,41,0)" xlink:href="#aF"/><use transform="matrix(0.05,0,0,0.05,51,0)" xlink:href="#aV"/><use transform="matrix(0.05,0,0,0.05,61,0)" xlink:href="#aM"/><use transform="matrix(0.05,0,0,0.05,71,0)" xlink:href="#aJ"/></g><g id="z"><use transform="matrix(0.05,0,0,0.05,0,0)" xlink:href="#aQ"/><use transform="matrix(0.05,0,0,0.05,9,0)" xlink:href="#aV"/><use transform="matrix(0.05,0,0,0.05,19,0)" xlink:href="#aM"/><use transform="matrix(0.05,0,0,0.05,29,0)" xlink:href="#aR"/></g><path fill="#333" d="M115-194c55 1 70 41 70 98S169 2 115 4C84 4 66-9 55-30l1 105H24l-1-265h31l2 30c10-21 28-34 59-34zm-8 174c40 0 45-34 45-75s-6-73-45-74c-42 0-51 32-51 76 0 43 10 73 51 73" id="bg"/><g id="A"><use transform="matrix(0.05,0,0,0.05,0,0)" xlink:href="#aG"/><use transform="matrix(0.05,0,0,0.05,5,0)" xlink:href="#aD"/><use transform="matrix(0.05,0,0,0.05,8.95,0)" xlink:href="#bg"/><use transform="matrix(0.05,0,0,0.05,18.95,0)" xlink:href="#aO"/><use transform="matrix(0.05,0,0,0.05,28.950000000000003,0)" xlink:href="#aJ"/></g><g id="B"><use transform="matrix(0.05,0,0,0.05,0,0)" xlink:href="#aD"/><use transform="matrix(0.05,0,0,0.05,3.95,0)" xlink:href="#aF"/><use transform="matrix(0.05,0,0,0.05,13.949999999999998,0)" xlink:href="#aG"/></g><g id="C"><use transform="matrix(0.05,0,0,0.05,0,0)" xlink:href="#aW"/><use transform="matrix(0.05,0,0,0.05,10.950000000000001,0)" xlink:href="#aL"/></g><path d="M27 0v-27h64v-190l-56 39v-29l58-41h29v221h61V0H27" id="bh"/><path d="M33 0v-38h34V0H33" id="bi"/><g id="D"><use transform="matrix(0.05,0,0,0.05,0,0)" xlink:href="#bh"/><use transform="matrix(0.05,0,0,0.05,10,0)" xlink:href="#bi"/><use transform="matrix(0.05,0,0,0.05,15,0)" xlink:href="#bi"/><use transform="matrix(0.05,0,0,0.05,20,0)" xlink:href="#bh"/></g><path fill="#333" d="M127-220V0H93v-220H8v-28h204v28h-85" id="bj"/><g id="E"><use transform="matrix(0.05,0,0,0.05,0,0)" xlink:href="#bj"/><use transform="matrix(0.05,0,0,0.05,8.950000000000001,0)" xlink:href="#aE"/><use transform="matrix(0.05,0,0,0.05,18.950000000000003,0)" xlink:href="#aC"/><use transform="matrix(0.05,0,0,0.05,22.900000000000002,0)" xlink:href="#aB"/><use transform="matrix(0.05,0,0,0.05,35.85,0)" xlink:href="#aC"/><use transform="matrix(0.05,0,0,0.05,39.800000000000004,0)" xlink:href="#aD"/><use transform="matrix(0.05,0,0,0.05,43.75000000000001,0)" xlink:href="#aE"/><use transform="matrix(0.05,0,0,0.05,53.75,0)" xlink:href="#aF"/><use transform="matrix(0.05,0,0,0.05,63.75,0)" xlink:href="#aG"/><use transform="matrix(0.05,0,0,0.05,68.75,0)" xlink:href="#aE"/></g><path fill="#333" d="M101-234c-31-9-42 10-38 44h38v23H63V0H32v-167H5v-23h27c-7-52 17-82 69-68v24" id="bk"/><g id="F"><use transform="matrix(0.05,0,0,0.05,0,0)" xlink:href="#aD"/><use transform="matrix(0.05,0,0,0.05,3.95,0)" xlink:href="#aI"/><use transform="matrix(0.05,0,0,0.05,13.949999999999998,0)" xlink:href="#bj"/><use transform="matrix(0.05,0,0,0.05,22.9,0)" xlink:href="#aE"/><use transform="matrix(0.05,0,0,0.05,32.9,0)" xlink:href="#aC"/><use transform="matrix(0.05,0,0,0.05,36.85,0)" xlink:href="#aE"/><use transform="matrix(0.05,0,0,0.05,46.85,0)" xlink:href="#bk"/><use transform="matrix(0.05,0,0,0.05,51.85,0)" xlink:href="#aO"/><use transform="matrix(0.05,0,0,0.05,61.85,0)" xlink:href="#aF"/><use transform="matrix(0.05,0,0,0.05,71.85,0)" xlink:href="#aE"/><use transform="matrix(0.05,0,0,0.05,81.85,0)" xlink:href="#aJ"/></g><g id="G"><use transform="matrix(0.05,0,0,0.05,0,0)" xlink:href="#aF"/><use transform="matrix(0.05,0,0,0.05,10,0)" xlink:href="#aO"/><use transform="matrix(0.05,0,0,0.05,20,0)" xlink:href="#bj"/><use transform="matrix(0.05,0,0,0.05,28.950000000000003,0)" xlink:href="#aE"/><use transform="matrix(0.05,0,0,0.05,38.95,0)" xlink:href="#aC"/><use transform="matrix(0.05,0,0,0.05,42.900000000000006,0)" xlink:href="#aE"/><use transform="matrix(0.05,0,0,0.05,52.900000000000006,0)" xlink:href="#bk"/><use transform="matrix(0.05,0,0,0.05,57.900000000000006,0)" xlink:href="#aO"/><use transform="matrix(0.05,0,0,0.05,67.9,0)" xlink:href="#aF"/><use transform="matrix(0.05,0,0,0.05,77.9,0)" xlink:href="#aE"/><use transform="matrix(0.05,0,0,0.05,87.9,0)" xlink:href="#aJ"/></g><path fill="#333" d="M141 0L90-78 38 0H4l68-98-65-92h35l48 74 47-74h35l-64 92 68 98h-35" id="bl"/><g id="H"><use transform="matrix(0.05,0,0,0.05,0,0)" xlink:href="#aY"/><use transform="matrix(0.05,0,0,0.05,12,0)" xlink:href="#bl"/><use transform="matrix(0.05,0,0,0.05,21,0)" xlink:href="#aQ"/><use transform="matrix(0.05,0,0,0.05,30,0)" xlink:href="#aC"/><use transform="matrix(0.05,0,0,0.05,33.95,0)" xlink:href="#aN"/><use transform="matrix(0.05,0,0,0.05,43.95,0)" xlink:href="#aD"/><use transform="matrix(0.05,0,0,0.05,47.900000000000006,0)" xlink:href="#aR"/><use transform="matrix(0.05,0,0,0.05,53.85,0)" xlink:href="#aZ"/><use transform="matrix(0.05,0,0,0.05,59.80000000000001,0)" xlink:href="#ba"/><use transform="matrix(0.05,0,0,0.05,65.75000000000001,0)" xlink:href="#aJ"/></g><path d="M80-196l47-18 7 23-49 13 32 44-20 13-27-46-27 45-21-12 33-44-49-13 8-23 47 19-2-53h23" id="bm"/><g id="I"><use transform="matrix(0.05,0,0,0.05,0,0)" xlink:href="#bh"/><use transform="matrix(0.05,0,0,0.05,10,0)" xlink:href="#bi"/><use transform="matrix(0.05,0,0,0.05,15,0)" xlink:href="#bi"/><use transform="matrix(0.05,0,0,0.05,20,0)" xlink:href="#bm"/></g><g id="J"><use transform="matrix(0.05,0,0,0.05,0,0)" xlink:href="#bh"/><use transform="matrix(0.05,0,0,0.05,10,0)" xlink:href="#bi"/><use transform="matrix(0.05,0,0,0.05,15,0)" xlink:href="#bh"/></g><g id="K"><use transform="matrix(0.05,0,0,0.05,0,0)" xlink:href="#aK"/><use transform="matrix(0.05,0,0,0.05,12,0)" xlink:href="#aM"/><use transform="matrix(0.05,0,0,0.05,22,0)" xlink:href="#aQ"/><use transform="matrix(0.05,0,0,0.05,31,0)" xlink:href="#aO"/><use transform="matrix(0.05,0,0,0.05,41,0)" xlink:href="#aG"/><use transform="matrix(0.05,0,0,0.05,46,0)" xlink:href="#aE"/></g><g id="L"><use transform="matrix(0.05,0,0,0.05,0,0)" xlink:href="#aD"/><use transform="matrix(0.05,0,0,0.05,3.95,0)" xlink:href="#aI"/><use transform="matrix(0.05,0,0,0.05,13.949999999999998,0)" xlink:href="#aK"/><use transform="matrix(0.05,0,0,0.05,25.950000000000003,0)" xlink:href="#aM"/><use transform="matrix(0.05,0,0,0.05,35.95,0)" xlink:href="#aQ"/><use transform="matrix(0.05,0,0,0.05,44.95,0)" xlink:href="#aO"/><use transform="matrix(0.05,0,0,0.05,54.95,0)" xlink:href="#aG"/><use transform="matrix(0.05,0,0,0.05,59.95,0)" xlink:href="#aE"/><use transform="matrix(0.05,0,0,0.05,69.95,0)" xlink:href="#aJ"/></g><g id="M"><use transform="matrix(0.05,0,0,0.05,0,0)" xlink:href="#aF"/><use transform="matrix(0.05,0,0,0.05,10,0)" xlink:href="#aS"/><use transform="matrix(0.05,0,0,0.05,24.950000000000003,0)" xlink:href="#aK"/><use transform="matrix(0.05,0,0,0.05,36.95,0)" xlink:href="#aM"/><use transform="matrix(0.05,0,0,0.05,46.95,0)" xlink:href="#aQ"/><use transform="matrix(0.05,0,0,0.05,55.95,0)" xlink:href="#aO"/><use transform="matrix(0.05,0,0,0.05,65.95,0)" xlink:href="#aG"/><use transform="matrix(0.05,0,0,0.05,70.95,0)" xlink:href="#aE"/><use transform="matrix(0.05,0,0,0.05,80.95,0)" xlink:href="#aJ"/></g><g id="N"><use transform="matrix(0.05,0,0,0.05,0,0)" xlink:href="#aE"/><use transform="matrix(0.05,0,0,0.05,10,0)" xlink:href="#aF"/><use transform="matrix(0.05,0,0,0.05,20,0)" xlink:href="#aN"/><use transform="matrix(0.05,0,0,0.05,30,0)" xlink:href="#aS"/></g><g id="O"><use transform="matrix(0.05,0,0,0.05,0,0)" xlink:href="#aI"/><use transform="matrix(0.05,0,0,0.05,10,0)" xlink:href="#aX"/><use transform="matrix(0.05,0,0,0.05,19,0)" xlink:href="#aK"/><use transform="matrix(0.05,0,0,0.05,31,0)" xlink:href="#aR"/><use transform="matrix(0.05,0,0,0.05,36.95,0)" xlink:href="#aE"/><use transform="matrix(0.05,0,0,0.05,46.95,0)" xlink:href="#aQ"/><use transform="matrix(0.05,0,0,0.05,55.95,0)" xlink:href="#aO"/><use transform="matrix(0.05,0,0,0.05,65.95,0)" xlink:href="#aJ"/></g><g id="P"><use transform="matrix(0.05,0,0,0.05,0,0)" xlink:href="#aI"/><use transform="matrix(0.05,0,0,0.05,10,0)" xlink:href="#aE"/><use transform="matrix(0.05,0,0,0.05,20,0)" xlink:href="#aQ"/><use transform="matrix(0.05,0,0,0.05,29,0)" xlink:href="#aD"/><use transform="matrix(0.05,0,0,0.05,32.95,0)" xlink:href="#aS"/><use transform="matrix(0.05,0,0,0.05,47.900000000000006,0)" xlink:href="#aM"/><use transform="matrix(0.05,0,0,0.05,57.900000000000006,0)" xlink:href="#aC"/></g><path fill="#333" d="M33 0v-248h34V0H33" id="bn"/><g id="Q"><use transform="matrix(0.05,0,0,0.05,0,0)" xlink:href="#bn"/><use transform="matrix(0.05,0,0,0.05,5,0)" xlink:href="#aS"/><use transform="matrix(0.05,0,0,0.05,19.950000000000003,0)" xlink:href="#aM"/><use transform="matrix(0.05,0,0,0.05,29.950000000000003,0)" xlink:href="#be"/><use transform="matrix(0.05,0,0,0.05,39.95,0)" xlink:href="#aE"/><use transform="matrix(0.05,0,0,0.05,49.95,0)" xlink:href="#aS"/><use transform="matrix(0.05,0,0,0.05,64.9,0)" xlink:href="#aJ"/></g><g id="R"><use transform="matrix(0.05,0,0,0.05,0,0)" xlink:href="#aK"/><use transform="matrix(0.05,0,0,0.05,12,0)" xlink:href="#aC"/><use transform="matrix(0.05,0,0,0.05,15.949999999999998,0)" xlink:href="#aM"/><use transform="matrix(0.05,0,0,0.05,25.950000000000003,0)" xlink:href="#aF"/><use transform="matrix(0.05,0,0,0.05,35.95,0)" xlink:href="#aO"/></g><g id="S"><use transform="matrix(0.05,0,0,0.05,0,0)" xlink:href="#aD"/><use transform="matrix(0.05,0,0,0.05,3.95,0)" xlink:href="#aI"/><use transform="matrix(0.05,0,0,0.05,13.949999999999998,0)" xlink:href="#aK"/><use transform="matrix(0.05,0,0,0.05,25.950000000000003,0)" xlink:href="#aC"/><use transform="matrix(0.05,0,0,0.05,29.899999999999995,0)" xlink:href="#aM"/><use transform="matrix(0.05,0,0,0.05,39.9,0)" xlink:href="#aF"/><use transform="matrix(0.05,0,0,0.05,49.9,0)" xlink:href="#aO"/><use transform="matrix(0.05,0,0,0.05,59.900000000000006,0)" xlink:href="#aJ"/></g><g id="T"><use transform="matrix(0.05,0,0,0.05,0,0)" xlink:href="#aF"/><use transform="matrix(0.05,0,0,0.05,10,0)" xlink:href="#aS"/><use transform="matrix(0.05,0,0,0.05,24.950000000000003,0)" xlink:href="#aK"/><use transform="matrix(0.05,0,0,0.05,36.95,0)" xlink:href="#aM"/><use transform="matrix(0.05,0,0,0.05,46.95,0)" xlink:href="#aD"/><use transform="matrix(0.05,0,0,0.05,50.900000000000006,0)" xlink:href="#aX"/><use transform="matrix(0.05,0,0,0.05,59.900000000000006,0)" xlink:href="#aJ"/></g><g id="U"><use transform="matrix(0.05,0,0,0.05,0,0)" xlink:href="#aF"/><use transform="matrix(0.05,0,0,0.05,10,0)" xlink:href="#aS"/><use transform="matrix(0.05,0,0,0.05,24.950000000000003,0)" xlink:href="#aB"/><use transform="matrix(0.05,0,0,0.05,37.900000000000006,0)" xlink:href="#aD"/><use transform="matrix(0.05,0,0,0.05,41.85000000000001,0)" xlink:href="#aI"/><use transform="matrix(0.05,0,0,0.05,51.85,0)" xlink:href="#aM"/><use transform="matrix(0.05,0,0,0.05,61.85,0)" xlink:href="#aI"/><use transform="matrix(0.05,0,0,0.05,71.85000000000001,0)" xlink:href="#aE"/><use transform="matrix(0.05,0,0,0.05,81.85000000000001,0)" xlink:href="#aJ"/></g><g id="V"><use transform="matrix(0.05,0,0,0.05,0,0)" xlink:href="#aI"/><use transform="matrix(0.05,0,0,0.05,10,0)" xlink:href="#aX"/><use transform="matrix(0.05,0,0,0.05,19,0)" xlink:href="#aB"/><use transform="matrix(0.05,0,0,0.05,31.950000000000003,0)" xlink:href="#aD"/><use transform="matrix(0.05,0,0,0.05,35.900000000000006,0)" xlink:href="#aI"/><use transform="matrix(0.05,0,0,0.05,45.900000000000006,0)" xlink:href="#aM"/><use transform="matrix(0.05,0,0,0.05,55.900000000000006,0)" xlink:href="#aI"/><use transform="matrix(0.05,0,0,0.05,65.9,0)" xlink:href="#aE"/><use transform="matrix(0.05,0,0,0.05,75.9,0)" xlink:href="#aJ"/></g><g id="W"><use transform="matrix(0.05,0,0,0.05,0,0)" xlink:href="#aI"/><use transform="matrix(0.05,0,0,0.05,10,0)" xlink:href="#aX"/><use transform="matrix(0.05,0,0,0.05,19,0)" xlink:href="#aB"/><use transform="matrix(0.05,0,0,0.05,31.950000000000003,0)" xlink:href="#aC"/><use transform="matrix(0.05,0,0,0.05,35.900000000000006,0)" xlink:href="#aD"/><use transform="matrix(0.05,0,0,0.05,39.85000000000001,0)" xlink:href="#aS"/><use transform="matrix(0.05,0,0,0.05,54.80000000000001,0)" xlink:href="#aM"/><use transform="matrix(0.05,0,0,0.05,64.80000000000001,0)" xlink:href="#aJ"/></g><g id="X"><use transform="matrix(0.05,0,0,0.05,0,0)" xlink:href="#aI"/><use transform="matrix(0.05,0,0,0.05,10,0)" xlink:href="#aX"/><use transform="matrix(0.05,0,0,0.05,19,0)" xlink:href="#aY"/><use transform="matrix(0.05,0,0,0.05,31,0)" xlink:href="#aX"/><use transform="matrix(0.05,0,0,0.05,40,0)" xlink:href="#aG"/><use transform="matrix(0.05,0,0,0.05,45,0)" xlink:href="#aM"/><use transform="matrix(0.05,0,0,0.05,55,0)" xlink:href="#aI"/><use transform="matrix(0.05,0,0,0.05,65,0)" xlink:href="#aD"/><use transform="matrix(0.05,0,0,0.05,68.95,0)" xlink:href="#aM"/><use transform="matrix(0.05,0,0,0.05,78.95,0)" xlink:href="#bn"/><use transform="matrix(0.05,0,0,0.05,83.95,0)" xlink:href="#aF"/><use transform="matrix(0.05,0,0,0.05,93.95,0)" xlink:href="#aD"/><use transform="matrix(0.05,0,0,0.05,97.9,0)" xlink:href="#aQ"/><use transform="matrix(0.05,0,0,0.05,106.9,0)" xlink:href="#aD"/><use transform="matrix(0.05,0,0,0.05,110.85000000000001,0)" xlink:href="#aO"/><use transform="matrix(0.05,0,0,0.05,120.85000000000001,0)" xlink:href="#aJ"/></g><g id="Y"><use transform="matrix(0.05,0,0,0.05,0,0)" xlink:href="#aI"/><use transform="matrix(0.05,0,0,0.05,10,0)" xlink:href="#aX"/><use transform="matrix(0.05,0,0,0.05,19,0)" xlink:href="#aY"/><use transform="matrix(0.05,0,0,0.05,31,0)" xlink:href="#aX"/><use transform="matrix(0.05,0,0,0.05,40,0)" xlink:href="#aG"/><use transform="matrix(0.05,0,0,0.05,45,0)" xlink:href="#aM"/><use transform="matrix(0.05,0,0,0.05,55,0)" xlink:href="#aI"/><use transform="matrix(0.05,0,0,0.05,65,0)" xlink:href="#aD"/><use transform="matrix(0.05,0,0,0.05,68.95,0)" xlink:href="#aM"/><use transform="matrix(0.05,0,0,0.05,78.95,0)" xlink:href="#bj"/><use transform="matrix(0.05,0,0,0.05,87.9,0)" xlink:href="#aE"/><use transform="matrix(0.05,0,0,0.05,97.9,0)" xlink:href="#aR"/><use transform="matrix(0.05,0,0,0.05,103.85000000000001,0)" xlink:href="#aS"/><use transform="matrix(0.05,0,0,0.05,118.80000000000001,0)" xlink:href="#aD"/><use transform="matrix(0.05,0,0,0.05,122.75,0)" xlink:href="#aF"/><use transform="matrix(0.05,0,0,0.05,132.75,0)" xlink:href="#aO"/><use transform="matrix(0.05,0,0,0.05,142.75,0)" xlink:href="#aJ"/></g><g id="Z"><use transform="matrix(0.05,0,0,0.05,0,0)" xlink:href="#aI"/><use transform="matrix(0.05,0,0,0.05,10,0)" xlink:href="#aX"/><use transform="matrix(0.05,0,0,0.05,19,0)" xlink:href="#aY"/><use transform="matrix(0.05,0,0,0.05,31,0)" xlink:href="#aX"/><use transform="matrix(0.05,0,0,0.05,40,0)" xlink:href="#aG"/><use transform="matrix(0.05,0,0,0.05,45,0)" xlink:href="#aM"/><use transform="matrix(0.05,0,0,0.05,55,0)" xlink:href="#aI"/><use transform="matrix(0.05,0,0,0.05,65,0)" xlink:href="#aD"/><use transform="matrix(0.05,0,0,0.05,68.95,0)" xlink:href="#aM"/><use transform="matrix(0.05,0,0,0.05,78.95,0)" xlink:href="#bj"/><use transform="matrix(0.05,0,0,0.05,87.9,0)" xlink:href="#aO"/><use transform="matrix(0.05,0,0,0.05,97.9,0)" xlink:href="#aG"/><use transform="matrix(0.05,0,0,0.05,102.9,0)" xlink:href="#aM"/><use transform="matrix(0.05,0,0,0.05,112.9,0)" xlink:href="#aC"/><use transform="matrix(0.05,0,0,0.05,116.85000000000001,0)" xlink:href="#aJ"/></g><path fill="#333" d="M240 0l2-218c-23 76-54 145-80 218h-23L58-218 59 0H30v-248h44l77 211c21-75 51-140 76-211h43V0h-30" id="bo"/><g id="aa"><use transform="matrix(0.05,0,0,0.05,0,0)" xlink:href="#aI"/><use transform="matrix(0.05,0,0,0.05,10,0)" xlink:href="#aX"/><use transform="matrix(0.05,0,0,0.05,19,0)" xlink:href="#bo"/><use transform="matrix(0.05,0,0,0.05,33.95,0)" xlink:href="#aO"/><use transform="matrix(0.05,0,0,0.05,43.95,0)" xlink:href="#aE"/><use transform="matrix(0.05,0,0,0.05,53.95,0)" xlink:href="#aI"/><use transform="matrix(0.05,0,0,0.05,63.95,0)" xlink:href="#aM"/><use transform="matrix(0.05,0,0,0.05,73.95,0)" xlink:href="#aJ"/></g><g id="ab"><use transform="matrix(0.05,0,0,0.05,0,0)" xlink:href="#aI"/><use transform="matrix(0.05,0,0,0.05,10,0)" xlink:href="#aX"/><use transform="matrix(0.05,0,0,0.05,19,0)" xlink:href="#bn"/><use transform="matrix(0.05,0,0,0.05,24,0)" xlink:href="#aI"/><use transform="matrix(0.05,0,0,0.05,34,0)" xlink:href="#aD"/><use transform="matrix(0.05,0,0,0.05,37.95,0)" xlink:href="#aO"/><use transform="matrix(0.05,0,0,0.05,47.95,0)" xlink:href="#aS"/><use transform="matrix(0.05,0,0,0.05,62.900000000000006,0)" xlink:href="#aM"/><use transform="matrix(0.05,0,0,0.05,72.9,0)" xlink:href="#aK"/><use transform="matrix(0.05,0,0,0.05,84.9,0)" xlink:href="#aJ"/></g><g id="ac"><use transform="matrix(0.05,0,0,0.05,0,0)" xlink:href="#aI"/><use transform="matrix(0.05,0,0,0.05,10,0)" xlink:href="#aX"/><use transform="matrix(0.05,0,0,0.05,19,0)" xlink:href="#bn"/><use transform="matrix(0.05,0,0,0.05,24,0)" xlink:href="#aI"/><use transform="matrix(0.05,0,0,0.05,34,0)" xlink:href="#aD"/><use transform="matrix(0.05,0,0,0.05,37.95,0)" xlink:href="#aO"/><use transform="matrix(0.05,0,0,0.05,47.95,0)" xlink:href="#aS"/><use transform="matrix(0.05,0,0,0.05,62.900000000000006,0)" xlink:href="#aM"/><use transform="matrix(0.05,0,0,0.05,72.9,0)" xlink:href="#bf"/><use transform="matrix(0.05,0,0,0.05,84.9,0)" xlink:href="#aJ"/></g><use transform="matrix(0.05,0,0,0.05,0,0)" xlink:href="#aT" id="ad"/><path d="M101-251c68 0 85 55 85 127S166 4 100 4C33 4 14-52 14-124c0-73 17-127 87-127zm-1 229c47 0 54-49 54-102s-4-102-53-102c-51 0-55 48-55 102 0 53 5 102 54 102" id="bp"/><g id="ae"><use transform="matrix(0.05,0,0,0.05,0,0)" xlink:href="#bp"/><use transform="matrix(0.05,0,0,0.05,10,0)" xlink:href="#bi"/><use transform="matrix(0.05,0,0,0.05,15,0)" xlink:href="#bi"/><use transform="matrix(0.05,0,0,0.05,20,0)" xlink:href="#bm"/></g><g id="af"><use transform="matrix(0.05,0,0,0.05,0,0)" xlink:href="#aB"/><use transform="matrix(0.05,0,0,0.05,12.950000000000001,0)" xlink:href="#aO"/><use transform="matrix(0.05,0,0,0.05,22.950000000000003,0)" xlink:href="#aS"/><use transform="matrix(0.05,0,0,0.05,37.900000000000006,0)" xlink:href="#bg"/><use transform="matrix(0.05,0,0,0.05,47.900000000000006,0)" xlink:href="#aR"/><use transform="matrix(0.05,0,0,0.05,53.85,0)" xlink:href="#aM"/></g><g id="ag"><use transform="matrix(0.05,0,0,0.05,0,0)" xlink:href="#aD"/><use transform="matrix(0.05,0,0,0.05,3.95,0)" xlink:href="#aI"/><use transform="matrix(0.05,0,0,0.05,13.949999999999998,0)" xlink:href="#aB"/><use transform="matrix(0.05,0,0,0.05,26.899999999999995,0)" xlink:href="#aO"/><use transform="matrix(0.05,0,0,0.05,36.9,0)" xlink:href="#aS"/><use transform="matrix(0.05,0,0,0.05,51.85,0)" xlink:href="#bg"/><use transform="matrix(0.05,0,0,0.05,61.85,0)" xlink:href="#aR"/><use transform="matrix(0.05,0,0,0.05,67.8,0)" xlink:href="#aM"/><use transform="matrix(0.05,0,0,0.05,77.8,0)" xlink:href="#aJ"/></g><g id="ah"><use transform="matrix(0.05,0,0,0.05,0,0)" xlink:href="#aI"/><use transform="matrix(0.05,0,0,0.05,10,0)" xlink:href="#aG"/><use transform="matrix(0.05,0,0,0.05,15,0)" xlink:href="#aB"/><use transform="matrix(0.05,0,0,0.05,27.950000000000003,0)" xlink:href="#aO"/><use transform="matrix(0.05,0,0,0.05,37.95,0)" xlink:href="#aS"/><use transform="matrix(0.05,0,0,0.05,52.900000000000006,0)" xlink:href="#bg"/><use transform="matrix(0.05,0,0,0.05,62.900000000000006,0)" xlink:href="#aR"/><use transform="matrix(0.05,0,0,0.05,68.85000000000001,0)" xlink:href="#aM"/><use transform="matrix(0.05,0,0,0.05,78.85000000000001,0)" xlink:href="#aJ"/></g><g id="ai"><use transform="matrix(0.05,0,0,0.05,0,0)" xlink:href="#aI"/><use transform="matrix(0.05,0,0,0.05,10,0)" xlink:href="#aM"/><use transform="matrix(0.05,0,0,0.05,20,0)" xlink:href="#aG"/><use transform="matrix(0.05,0,0,0.05,25,0)" xlink:href="#aE"/><use transform="matrix(0.05,0,0,0.05,35,0)" xlink:href="#aG"/><use transform="matrix(0.05,0,0,0.05,40,0)" xlink:href="#aD"/><use transform="matrix(0.05,0,0,0.05,43.95,0)" xlink:href="#aS"/><use transform="matrix(0.05,0,0,0.05,58.900000000000006,0)" xlink:href="#aE"/></g><g id="aj"><use transform="matrix(0.05,0,0,0.05,0,0)" xlink:href="#aK"/><use transform="matrix(0.05,0,0,0.05,12,0)" xlink:href="#aM"/><use transform="matrix(0.05,0,0,0.05,22,0)" xlink:href="#be"/><use transform="matrix(0.05,0,0,0.05,32,0)" xlink:href="#aM"/><use transform="matrix(0.05,0,0,0.05,42,0)" xlink:href="#aS"/><use transform="matrix(0.05,0,0,0.05,56.95,0)" xlink:href="#aE"/><use transform="matrix(0.05,0,0,0.05,66.95,0)" xlink:href="#aF"/><use transform="matrix(0.05,0,0,0.05,76.95,0)" xlink:href="#aG"/><use transform="matrix(0.05,0,0,0.05,81.95,0)" xlink:href="#aO"/></g><g id="ak"><use transform="matrix(0.05,0,0,0.05,0,0)" xlink:href="#aD"/><use transform="matrix(0.05,0,0,0.05,3.95,0)" xlink:href="#aI"/><use transform="matrix(0.05,0,0,0.05,13.949999999999998,0)" xlink:href="#aK"/><use transform="matrix(0.05,0,0,0.05,25.950000000000003,0)" xlink:href="#aM"/><use transform="matrix(0.05,0,0,0.05,35.95,0)" xlink:href="#be"/><use transform="matrix(0.05,0,0,0.05,45.95,0)" xlink:href="#aM"/><use transform="matrix(0.05,0,0,0.05,55.95,0)" xlink:href="#aS"/><use transform="matrix(0.05,0,0,0.05,70.9,0)" xlink:href="#aE"/><use transform="matrix(0.05,0,0,0.05,80.9,0)" xlink:href="#aF"/><use transform="matrix(0.05,0,0,0.05,90.9,0)" xlink:href="#aG"/><use transform="matrix(0.05,0,0,0.05,95.9,0)" xlink:href="#aO"/><use transform="matrix(0.05,0,0,0.05,105.9,0)" xlink:href="#aJ"/></g><g id="al"><use transform="matrix(0.05,0,0,0.05,0,0)" xlink:href="#aM"/><use transform="matrix(0.05,0,0,0.05,10,0)" xlink:href="#aN"/><use transform="matrix(0.05,0,0,0.05,20,0)" xlink:href="#aG"/><use transform="matrix(0.05,0,0,0.05,25,0)" xlink:href="#aO"/></g><g id="am"><use transform="matrix(0.05,0,0,0.05,0,0)" xlink:href="#aP"/><use transform="matrix(0.05,0,0,0.05,10,0)" xlink:href="#aD"/><use transform="matrix(0.05,0,0,0.05,13.949999999999998,0)" xlink:href="#aF"/><use transform="matrix(0.05,0,0,0.05,23.95,0)" xlink:href="#aQ"/><use transform="matrix(0.05,0,0,0.05,32.95,0)" xlink:href="#aR"/><use transform="matrix(0.05,0,0,0.05,38.900000000000006,0)" xlink:href="#aE"/><use transform="matrix(0.05,0,0,0.05,48.900000000000006,0)" xlink:href="#aS"/><use transform="matrix(0.05,0,0,0.05,63.85,0)" xlink:href="#aE"/><use transform="matrix(0.05,0,0,0.05,73.85000000000001,0)" xlink:href="#aF"/><use transform="matrix(0.05,0,0,0.05,83.85000000000001,0)" xlink:href="#aG"/></g><g id="an"><use transform="matrix(0.05,0,0,0.05,0,0)" xlink:href="#aF"/><use transform="matrix(0.05,0,0,0.05,10,0)" xlink:href="#aS"/><use transform="matrix(0.05,0,0,0.05,24.950000000000003,0)" xlink:href="#aK"/><use transform="matrix(0.05,0,0,0.05,36.95,0)" xlink:href="#aM"/><use transform="matrix(0.05,0,0,0.05,46.95,0)" xlink:href="#be"/><use transform="matrix(0.05,0,0,0.05,56.95,0)" xlink:href="#aJ"/></g><g id="ao"><use transform="matrix(0.05,0,0,0.05,0,0)" xlink:href="#aW"/><use transform="matrix(0.05,0,0,0.05,10.950000000000001,0)" xlink:href="#aL"/></g></defs></g></svg>